# xmcd
#
# Track frame offsets:
#	150
#	17642
#	35172
#	54277
#	67679
#	87732
#	100540
#	120528
#	137631
#	156366
#	173247
#	187215
#	203785
#	217044
#
# Disc length: 3161 seconds
#
# Revision: 0
# Processed by: cddbd v1.5PL3 Copyright (c) Steve Scherf et al.
# Submitted via: dBpowerAMP V4.0
#
DISCID=c50c570e
DTITLE=Brooks and Dunn - Red Dirt Road 
DYEAR=2003
DGENRE=Country
TTITLE0=You Can't Take The Honky Tonk Out Of The Girl
TTITLE1=Caroline
TTITLE2=When We Were Kings
TTITLE3=That's What She Gets For Loving Me
TTITLE4=Red Dirt Road
TTITLE5=Feels Good Don't It
TTITLE6=I Used To Know This Song By Heart
TTITLE7=Believer
TTITLE8=Memory Town
TTITLE9=She Was Born To Run
TTITLE10=Till My Dyin' Day
TTITLE11=My Baby's Everything I Love
TTITLE12=Good Day To Be Me
TTITLE13=Good Cowboy
EXTD=
EXTT0=
EXTT1=
EXTT2=
EXTT3=
EXTT4=
EXTT5=
EXTT6=
EXTT7=
EXTT8=
EXTT9=
EXTT10=
EXTT11=
EXTT12=
EXTT13=
PLAYORDER=
